Across.the.Line.The.Exodus.of.Charlie.Wright.2011.DVDRip.DMT
.
Subs: Dutch Srt file
.
Acteurs: !!! Aidan Quinn / Mario Van Peebles / Luke Goss / Gina Gershon / Andy Garcia / Gary Daniels
.
[IMG]http://img683.imageshack.us/img683/2726/frontjy.jpg[/IMG]
.
Verenigde Staten
Misdaad / Drama
95 minuten
.
geregisseerd door R. Ellis Frazier
met Aidan Quinn, Andy Garcia en Mario Van Peebles
.
Het verhaal gaat over Charlie Wright (Aidan Quinn), een miljardair en financiÙle whizzkid die in een zelf opgelegd ballingschap gaat in Tijuana nadat openbaar wordt dat zijn imperium het grootste pyramidespel van de VS blijkt te zijn. Terwijl hij op zoek gaat naar zijn vrouw die hij 25 jaar geleden verlaten heeft wordt hij gezocht door een Mexicaanse gangster, een federale agent en een stel criminelen die gestuurd zijn door een voormalige cliÙnt die zijn geld terug wil.
.
Vanaf 17 mei op video.
. 
http://www.moviemeter.nl/film/68940.
.
PLOT
.
The story centers on Charlie, a Los Angeles billionaire financial whiz who goes into self-imposed exile in Tijuana after his empire is revealed to have been a Ponzi scheme... 
. 
http://www.imdb.com/title/tt1663193/
.
INFO
.
Complete name                    : E:\Across.the.Line.The.Exodus.of.Charlie.Wright.2011.DVDRip.DMT\Across.the.Line.The.Exodus.of.Charlie.Wright.2011.DVDRip.DMT.avi
Format                           : AVI
Format/Info                      : Audio Video Interleave
File size                        : 689 MiB
Duration                         : 1h 30mn
Overall bit rate                 : 1 066 Kbps
Movie name                       : ACROSSTHELINE.Title1.DVDRip
Writing application              : Lavf52.78.4
Original source form/Name        : ACROSSTHELINE

Video
ID                               : 0
Format                           : AVC
Format/Info                      : Advanced Video Codec
Codec ID                         : H264
Duration                         : 1h 30mn
Bit rate                         : 925 Kbps
Width                            : 720 pixels
Height                           : 406 pixels
Display aspect ratio             : 16:9
Frame rate                       : 25.000 fps
Color space                      : YUV
Chroma subsampling               : 4:2:0
Bits/(Pixel*Frame)               : 0.127
Stream size                      : 598 MiB (87%)

Audio
ID                               : 1
Format                           : MPEG Audio
Format version                   : Version 1
Format profile                   : Layer 3
Mode                             : Joint stereo
Mode extension                   : MS Stereo
Codec ID                         : 55
Codec ID/Hint                    : MP3
Duration                         : 1h 30mn
Bit rate mode                    : Constant
Bit rate                         : 128 Kbps
Channel(s)                       : 2 channels
Sampling rate                    : 48.0 KHz
Stream size                      : 82.8 MiB (12%)
Alignment                        : Aligned on interleaves
Interleave, duration             : 24 ms (0.60 video frame)
Interleave, preload duration     : 24 ms


.
Enjoy
